<mxfile host="Electron" modified="2023-06-02T16:36:34.393Z" agent="Mozilla/5.0 (Windows NT 10.0; Win64; x64) AppleWebKit/537.36 (KHTML, like Gecko) draw.io/21.2.8 Chrome/112.0.5615.165 Electron/24.2.0 Safari/537.36" etag="AoST99VnTL2jaNG08CG5" version="21.2.8" type="device">
  <diagram name="Page-1" id="2YBvvXClWsGukQMizWep">
    <mxGraphModel dx="1297" dy="-189" grid="1" gridSize="10" guides="1" tooltips="1" connect="1" arrows="1" fold="1" page="1" pageScale="1" pageWidth="850" pageHeight="1100" math="0" shadow="0">
      <root>
        <mxCell id="0" />
        <mxCell id="1" parent="0" />
        <mxCell id="KgcwhwzwJlgUO1JTBY_t-3" value="" style="shape=umlLifeline;perimeter=lifelinePerimeter;whiteSpace=wrap;html=1;container=1;dropTarget=0;collapsible=0;recursiveResize=0;outlineConnect=0;portConstraint=eastwest;newEdgeStyle={&quot;edgeStyle&quot;:&quot;elbowEdgeStyle&quot;,&quot;elbow&quot;:&quot;vertical&quot;,&quot;curved&quot;:0,&quot;rounded&quot;:0};participant=umlActor;" parent="1" vertex="1">
          <mxGeometry x="150" y="1120" width="20" height="1060" as="geometry" />
        </mxCell>
        <mxCell id="KgcwhwzwJlgUO1JTBY_t-4" value="" style="html=1;points=[];perimeter=orthogonalPerimeter;outlineConnect=0;targetShapes=umlLifeline;portConstraint=eastwest;newEdgeStyle={&quot;edgeStyle&quot;:&quot;elbowEdgeStyle&quot;,&quot;elbow&quot;:&quot;vertical&quot;,&quot;curved&quot;:0,&quot;rounded&quot;:0};" parent="KgcwhwzwJlgUO1JTBY_t-3" vertex="1">
          <mxGeometry x="5" y="40" width="10" height="1000" as="geometry" />
        </mxCell>
        <mxCell id="6_1-8qy97I9ZGp-JPqzc-2" value="&lt;font style=&quot;font-size: 8px;&quot;&gt;SourceType&lt;/font&gt;" style="html=1;align=left;spacingLeft=2;endArrow=block;rounded=0;edgeStyle=orthogonalEdgeStyle;curved=0;rounded=0;" parent="KgcwhwzwJlgUO1JTBY_t-3" source="KgcwhwzwJlgUO1JTBY_t-4" target="KgcwhwzwJlgUO1JTBY_t-4" edge="1">
          <mxGeometry relative="1" as="geometry">
            <mxPoint x="20" y="60" as="sourcePoint" />
            <Array as="points">
              <mxPoint x="50" y="60" />
              <mxPoint x="50" y="90" />
            </Array>
            <mxPoint x="20" y="90" as="targetPoint" />
          </mxGeometry>
        </mxCell>
        <mxCell id="NDGKZVB12Xw6W9YrpPGg-29" value="&lt;font style=&quot;font-size: 8px;&quot;&gt;articles.next(): article&lt;br&gt;&lt;/font&gt;" style="html=1;align=left;spacingLeft=2;endArrow=block;rounded=0;edgeStyle=orthogonalEdgeStyle;curved=0;rounded=0;" edge="1" parent="KgcwhwzwJlgUO1JTBY_t-3" source="KgcwhwzwJlgUO1JTBY_t-4" target="KgcwhwzwJlgUO1JTBY_t-4">
          <mxGeometry relative="1" as="geometry">
            <mxPoint x="20" y="760" as="sourcePoint" />
            <Array as="points">
              <mxPoint x="55" y="760" />
              <mxPoint x="55" y="800" />
            </Array>
            <mxPoint x="20" y="790" as="targetPoint" />
          </mxGeometry>
        </mxCell>
        <mxCell id="NDGKZVB12Xw6W9YrpPGg-33" value="&lt;font style=&quot;font-size: 8px;&quot;&gt;printArticle()&lt;br&gt;&lt;/font&gt;" style="html=1;align=left;spacingLeft=2;endArrow=block;rounded=0;edgeStyle=orthogonalEdgeStyle;curved=0;rounded=0;" edge="1" parent="KgcwhwzwJlgUO1JTBY_t-3" source="KgcwhwzwJlgUO1JTBY_t-4" target="KgcwhwzwJlgUO1JTBY_t-4">
          <mxGeometry x="-0.0003" relative="1" as="geometry">
            <mxPoint x="20" y="930" as="sourcePoint" />
            <Array as="points">
              <mxPoint x="60" y="960" />
              <mxPoint x="60" y="1000" />
            </Array>
            <mxPoint x="20" y="970" as="targetPoint" />
            <mxPoint as="offset" />
          </mxGeometry>
        </mxCell>
        <mxCell id="6_1-8qy97I9ZGp-JPqzc-3" value="alt" style="shape=umlFrame;whiteSpace=wrap;html=1;pointerEvents=0;width=30;height=30;" parent="1" vertex="1">
          <mxGeometry x="30" y="1220" width="360" height="350" as="geometry" />
        </mxCell>
        <mxCell id="6_1-8qy97I9ZGp-JPqzc-4" value="&lt;font style=&quot;font-size: 8px;&quot;&gt;[SourceType==CSVSource]&lt;/font&gt;" style="text;strokeColor=none;fillColor=none;align=left;verticalAlign=top;spacingLeft=4;spacingRight=4;overflow=hidden;rotatable=0;points=[[0,0.5],[1,0.5]];portConstraint=eastwest;whiteSpace=wrap;html=1;" parent="1" vertex="1">
          <mxGeometry x="30" y="1250" width="110" height="26" as="geometry" />
        </mxCell>
        <mxCell id="6_1-8qy97I9ZGp-JPqzc-5" value="CSVSource" style="shape=umlLifeline;perimeter=lifelinePerimeter;whiteSpace=wrap;html=1;container=1;dropTarget=0;collapsible=0;recursiveResize=0;outlineConnect=0;portConstraint=eastwest;newEdgeStyle={&quot;edgeStyle&quot;:&quot;elbowEdgeStyle&quot;,&quot;elbow&quot;:&quot;vertical&quot;,&quot;curved&quot;:0,&quot;rounded&quot;:0};" parent="1" vertex="1">
          <mxGeometry x="270" y="1230" width="100" height="130" as="geometry" />
        </mxCell>
        <mxCell id="6_1-8qy97I9ZGp-JPqzc-6" value="" style="html=1;points=[];perimeter=orthogonalPerimeter;outlineConnect=0;targetShapes=umlLifeline;portConstraint=eastwest;newEdgeStyle={&quot;edgeStyle&quot;:&quot;elbowEdgeStyle&quot;,&quot;elbow&quot;:&quot;vertical&quot;,&quot;curved&quot;:0,&quot;rounded&quot;:0};" parent="6_1-8qy97I9ZGp-JPqzc-5" vertex="1">
          <mxGeometry x="45" y="56" width="10" height="54" as="geometry" />
        </mxCell>
        <mxCell id="6_1-8qy97I9ZGp-JPqzc-14" value="&lt;font style=&quot;font-size: 6px;&quot;&gt;(CSVFileName)&lt;/font&gt;" style="endArrow=blockThin;endSize=16;endFill=1;html=1;rounded=0;" parent="1" edge="1">
          <mxGeometry x="-0.1429" width="160" relative="1" as="geometry">
            <mxPoint x="165" y="1250" as="sourcePoint" />
            <mxPoint x="270" y="1250" as="targetPoint" />
            <mxPoint as="offset" />
          </mxGeometry>
        </mxCell>
        <mxCell id="6_1-8qy97I9ZGp-JPqzc-15" value="&lt;font style=&quot;font-size: 6px;&quot;&gt;getArticles()&lt;/font&gt;" style="endArrow=blockThin;endSize=16;endFill=1;html=1;rounded=0;" parent="1" source="KgcwhwzwJlgUO1JTBY_t-4" target="6_1-8qy97I9ZGp-JPqzc-6" edge="1">
          <mxGeometry x="-0.1333" width="160" relative="1" as="geometry">
            <mxPoint x="165" y="1290" as="sourcePoint" />
            <mxPoint x="310" y="1290" as="targetPoint" />
            <Array as="points">
              <mxPoint x="190" y="1300" />
              <mxPoint x="290" y="1300" />
            </Array>
            <mxPoint as="offset" />
          </mxGeometry>
        </mxCell>
        <mxCell id="6_1-8qy97I9ZGp-JPqzc-16" value="&lt;font style=&quot;font-size: 6px;&quot;&gt;articles&lt;/font&gt;" style="endArrow=openThin;endSize=12;dashed=1;html=1;rounded=0;endFill=0;" parent="1" source="6_1-8qy97I9ZGp-JPqzc-6" target="KgcwhwzwJlgUO1JTBY_t-4" edge="1">
          <mxGeometry x="-0.1333" width="160" relative="1" as="geometry">
            <mxPoint x="250" y="1320" as="sourcePoint" />
            <mxPoint x="210" y="1320" as="targetPoint" />
            <Array as="points">
              <mxPoint x="290" y="1320" />
            </Array>
            <mxPoint as="offset" />
          </mxGeometry>
        </mxCell>
        <mxCell id="6_1-8qy97I9ZGp-JPqzc-17" value="" style="shape=umlDestroy;whiteSpace=wrap;html=1;strokeWidth=3;targetShapes=umlLifeline;" parent="1" vertex="1">
          <mxGeometry x="305" y="1340" width="30" height="30" as="geometry" />
        </mxCell>
        <mxCell id="6_1-8qy97I9ZGp-JPqzc-18" value="&lt;font style=&quot;font-size: 6px;&quot;&gt;&amp;lt;&amp;lt;destroy&amp;gt;&amp;gt;&lt;/font&gt;" style="endArrow=blockThin;endSize=16;endFill=1;html=1;rounded=0;" parent="1" source="KgcwhwzwJlgUO1JTBY_t-4" edge="1">
          <mxGeometry x="-0.1613" width="160" relative="1" as="geometry">
            <mxPoint x="175" y="1354.55" as="sourcePoint" />
            <mxPoint x="320" y="1355" as="targetPoint" />
            <mxPoint as="offset" />
          </mxGeometry>
        </mxCell>
        <mxCell id="6_1-8qy97I9ZGp-JPqzc-19" value="" style="endArrow=none;dashed=1;html=1;rounded=0;exitX=0;exitY=0.458;exitDx=0;exitDy=0;exitPerimeter=0;entryX=1;entryY=0.457;entryDx=0;entryDy=0;entryPerimeter=0;" parent="1" source="6_1-8qy97I9ZGp-JPqzc-3" target="6_1-8qy97I9ZGp-JPqzc-3" edge="1">
          <mxGeometry width="50" height="50" relative="1" as="geometry">
            <mxPoint x="260" y="1470" as="sourcePoint" />
            <mxPoint x="380" y="1380" as="targetPoint" />
          </mxGeometry>
        </mxCell>
        <mxCell id="6_1-8qy97I9ZGp-JPqzc-20" value="&lt;font style=&quot;font-size: 8px;&quot;&gt;[SourceType==APISource]&lt;/font&gt;" style="text;strokeColor=none;fillColor=none;align=left;verticalAlign=top;spacingLeft=4;spacingRight=4;overflow=hidden;rotatable=0;points=[[0,0.5],[1,0.5]];portConstraint=eastwest;whiteSpace=wrap;html=1;" parent="1" vertex="1">
          <mxGeometry x="30" y="1380" width="110" height="30" as="geometry" />
        </mxCell>
        <mxCell id="6_1-8qy97I9ZGp-JPqzc-21" value="APISource" style="shape=umlLifeline;perimeter=lifelinePerimeter;whiteSpace=wrap;html=1;container=1;dropTarget=0;collapsible=0;recursiveResize=0;outlineConnect=0;portConstraint=eastwest;newEdgeStyle={&quot;edgeStyle&quot;:&quot;elbowEdgeStyle&quot;,&quot;elbow&quot;:&quot;vertical&quot;,&quot;curved&quot;:0,&quot;rounded&quot;:0};" parent="1" vertex="1">
          <mxGeometry x="270" y="1390" width="100" height="160" as="geometry" />
        </mxCell>
        <mxCell id="6_1-8qy97I9ZGp-JPqzc-22" value="" style="html=1;points=[];perimeter=orthogonalPerimeter;outlineConnect=0;targetShapes=umlLifeline;portConstraint=eastwest;newEdgeStyle={&quot;edgeStyle&quot;:&quot;elbowEdgeStyle&quot;,&quot;elbow&quot;:&quot;vertical&quot;,&quot;curved&quot;:0,&quot;rounded&quot;:0};fillStyle=solid;" parent="6_1-8qy97I9ZGp-JPqzc-21" vertex="1">
          <mxGeometry x="45" y="50" width="10" height="90" as="geometry" />
        </mxCell>
        <mxCell id="6_1-8qy97I9ZGp-JPqzc-23" value="&lt;span style=&quot;font-size: 6px;&quot;&gt;(baseUrl, apiKey, tags,&lt;br&gt;queries, maxArticle)&amp;nbsp;&lt;br&gt;&lt;/span&gt;" style="endArrow=blockThin;endSize=16;endFill=1;html=1;rounded=0;" parent="1" edge="1">
          <mxGeometry x="-0.1429" width="160" relative="1" as="geometry">
            <mxPoint x="165" y="1410" as="sourcePoint" />
            <mxPoint x="270" y="1410" as="targetPoint" />
            <mxPoint as="offset" />
          </mxGeometry>
        </mxCell>
        <mxCell id="6_1-8qy97I9ZGp-JPqzc-24" value="&lt;font style=&quot;font-size: 6px;&quot;&gt;getArticles()&lt;/font&gt;" style="endArrow=blockThin;endSize=16;endFill=1;html=1;rounded=0;" parent="1" source="KgcwhwzwJlgUO1JTBY_t-4" target="6_1-8qy97I9ZGp-JPqzc-22" edge="1">
          <mxGeometry x="-0.1333" width="160" relative="1" as="geometry">
            <mxPoint x="170" y="1460" as="sourcePoint" />
            <mxPoint x="310" y="1460" as="targetPoint" />
            <Array as="points">
              <mxPoint x="200" y="1450" />
              <mxPoint x="290" y="1450" />
            </Array>
            <mxPoint as="offset" />
          </mxGeometry>
        </mxCell>
        <mxCell id="6_1-8qy97I9ZGp-JPqzc-25" value="&lt;font style=&quot;font-size: 6px;&quot;&gt;articles&lt;/font&gt;" style="endArrow=openThin;endSize=12;dashed=1;html=1;rounded=0;endFill=0;" parent="1" source="6_1-8qy97I9ZGp-JPqzc-22" target="KgcwhwzwJlgUO1JTBY_t-4" edge="1">
          <mxGeometry x="-0.1333" width="160" relative="1" as="geometry">
            <mxPoint x="310" y="1480" as="sourcePoint" />
            <mxPoint x="170" y="1480" as="targetPoint" />
            <Array as="points">
              <mxPoint x="310" y="1510" />
              <mxPoint x="280" y="1510" />
            </Array>
            <mxPoint as="offset" />
          </mxGeometry>
        </mxCell>
        <mxCell id="6_1-8qy97I9ZGp-JPqzc-26" value="" style="shape=umlDestroy;whiteSpace=wrap;html=1;strokeWidth=3;targetShapes=umlLifeline;" parent="1" vertex="1">
          <mxGeometry x="305" y="1530" width="30" height="30" as="geometry" />
        </mxCell>
        <mxCell id="6_1-8qy97I9ZGp-JPqzc-27" value="&lt;font style=&quot;font-size: 6px;&quot;&gt;&amp;lt;&amp;lt;destroy&amp;gt;&amp;gt;&lt;/font&gt;" style="endArrow=blockThin;endSize=16;endFill=1;html=1;rounded=0;entryX=0.492;entryY=0.507;entryDx=0;entryDy=0;entryPerimeter=0;" parent="1" source="KgcwhwzwJlgUO1JTBY_t-4" edge="1" target="6_1-8qy97I9ZGp-JPqzc-26">
          <mxGeometry x="-0.1613" width="160" relative="1" as="geometry">
            <mxPoint x="170" y="1515" as="sourcePoint" />
            <mxPoint x="320" y="1515" as="targetPoint" />
            <mxPoint as="offset" />
            <Array as="points">
              <mxPoint x="170" y="1545" />
            </Array>
          </mxGeometry>
        </mxCell>
        <mxCell id="NDGKZVB12Xw6W9YrpPGg-1" value="Serializer" style="shape=umlLifeline;perimeter=lifelinePerimeter;whiteSpace=wrap;html=1;container=1;dropTarget=0;collapsible=0;recursiveResize=0;outlineConnect=0;portConstraint=eastwest;newEdgeStyle={&quot;edgeStyle&quot;:&quot;elbowEdgeStyle&quot;,&quot;elbow&quot;:&quot;vertical&quot;,&quot;curved&quot;:0,&quot;rounded&quot;:0};" vertex="1" parent="1">
          <mxGeometry x="430" y="1120" width="100" height="1060" as="geometry" />
        </mxCell>
        <mxCell id="NDGKZVB12Xw6W9YrpPGg-2" value="" style="html=1;points=[];perimeter=orthogonalPerimeter;outlineConnect=0;targetShapes=umlLifeline;portConstraint=eastwest;newEdgeStyle={&quot;edgeStyle&quot;:&quot;elbowEdgeStyle&quot;,&quot;elbow&quot;:&quot;vertical&quot;,&quot;curved&quot;:0,&quot;rounded&quot;:0};" vertex="1" parent="NDGKZVB12Xw6W9YrpPGg-1">
          <mxGeometry x="45" y="460" width="10" height="60" as="geometry" />
        </mxCell>
        <mxCell id="NDGKZVB12Xw6W9YrpPGg-3" value="&lt;font style=&quot;font-size: 6px;&quot;&gt;serialize(articles, StoreFileName)&lt;/font&gt;" style="endArrow=openThin;endSize=16;endFill=0;html=1;rounded=0;" edge="1" parent="1" source="KgcwhwzwJlgUO1JTBY_t-4" target="NDGKZVB12Xw6W9YrpPGg-2">
          <mxGeometry x="-0.1429" width="160" relative="1" as="geometry">
            <mxPoint x="170" y="1580" as="sourcePoint" />
            <mxPoint x="470" y="1580" as="targetPoint" />
            <mxPoint as="offset" />
            <Array as="points">
              <mxPoint x="250" y="1590" />
              <mxPoint x="400" y="1590" />
            </Array>
          </mxGeometry>
        </mxCell>
        <mxCell id="NDGKZVB12Xw6W9YrpPGg-4" value="OS FileSystem" style="shape=umlLifeline;perimeter=lifelinePerimeter;whiteSpace=wrap;html=1;container=1;dropTarget=0;collapsible=0;recursiveResize=0;outlineConnect=0;portConstraint=eastwest;newEdgeStyle={&quot;edgeStyle&quot;:&quot;elbowEdgeStyle&quot;,&quot;elbow&quot;:&quot;vertical&quot;,&quot;curved&quot;:0,&quot;rounded&quot;:0};" vertex="1" parent="1">
          <mxGeometry x="910" y="1120" width="100" height="930" as="geometry" />
        </mxCell>
        <mxCell id="NDGKZVB12Xw6W9YrpPGg-6" value="" style="html=1;points=[];perimeter=orthogonalPerimeter;outlineConnect=0;targetShapes=umlLifeline;portConstraint=eastwest;newEdgeStyle={&quot;edgeStyle&quot;:&quot;elbowEdgeStyle&quot;,&quot;elbow&quot;:&quot;vertical&quot;,&quot;curved&quot;:0,&quot;rounded&quot;:0};" vertex="1" parent="NDGKZVB12Xw6W9YrpPGg-4">
          <mxGeometry x="45" y="460" width="10" height="60" as="geometry" />
        </mxCell>
        <mxCell id="NDGKZVB12Xw6W9YrpPGg-7" value="" style="html=1;points=[];perimeter=orthogonalPerimeter;outlineConnect=0;targetShapes=umlLifeline;portConstraint=eastwest;newEdgeStyle={&quot;edgeStyle&quot;:&quot;elbowEdgeStyle&quot;,&quot;elbow&quot;:&quot;vertical&quot;,&quot;curved&quot;:0,&quot;rounded&quot;:0};" vertex="1" parent="NDGKZVB12Xw6W9YrpPGg-4">
          <mxGeometry x="45" y="170" width="10" height="40" as="geometry" />
        </mxCell>
        <mxCell id="NDGKZVB12Xw6W9YrpPGg-19" value="" style="html=1;points=[];perimeter=orthogonalPerimeter;outlineConnect=0;targetShapes=umlLifeline;portConstraint=eastwest;newEdgeStyle={&quot;edgeStyle&quot;:&quot;elbowEdgeStyle&quot;,&quot;elbow&quot;:&quot;vertical&quot;,&quot;curved&quot;:0,&quot;rounded&quot;:0};" vertex="1" parent="NDGKZVB12Xw6W9YrpPGg-4">
          <mxGeometry x="45" y="560" width="10" height="60" as="geometry" />
        </mxCell>
        <mxCell id="NDGKZVB12Xw6W9YrpPGg-5" value="&lt;font style=&quot;font-size: 6px;&quot;&gt;writeValue(StoreFileName, articles)&lt;/font&gt;" style="endArrow=openThin;endSize=16;endFill=0;html=1;rounded=0;" edge="1" parent="1" source="NDGKZVB12Xw6W9YrpPGg-2" target="NDGKZVB12Xw6W9YrpPGg-6">
          <mxGeometry width="160" relative="1" as="geometry">
            <mxPoint x="490" y="1600" as="sourcePoint" />
            <mxPoint x="610" y="1590" as="targetPoint" />
            <mxPoint as="offset" />
            <Array as="points">
              <mxPoint x="530" y="1600" />
              <mxPoint x="580" y="1600" />
              <mxPoint x="780" y="1600" />
            </Array>
          </mxGeometry>
        </mxCell>
        <mxCell id="NDGKZVB12Xw6W9YrpPGg-8" value="&lt;font style=&quot;font-size: 6px;&quot;&gt;readArticles(CSVFileName)&lt;/font&gt;" style="endArrow=blockThin;endSize=16;endFill=1;html=1;rounded=0;" edge="1" parent="1" source="6_1-8qy97I9ZGp-JPqzc-6" target="NDGKZVB12Xw6W9YrpPGg-7">
          <mxGeometry width="160" relative="1" as="geometry">
            <mxPoint x="330" y="1300" as="sourcePoint" />
            <mxPoint x="630" y="1300" as="targetPoint" />
            <mxPoint as="offset" />
            <Array as="points">
              <mxPoint x="345" y="1300" />
              <mxPoint x="425" y="1300" />
              <mxPoint x="445" y="1300" />
            </Array>
          </mxGeometry>
        </mxCell>
        <mxCell id="NDGKZVB12Xw6W9YrpPGg-9" value="&lt;span style=&quot;font-size: 6px;&quot;&gt;parsedArticles&lt;/span&gt;" style="endArrow=openThin;endSize=12;dashed=1;html=1;rounded=0;endFill=0;" edge="1" parent="1" source="NDGKZVB12Xw6W9YrpPGg-7" target="6_1-8qy97I9ZGp-JPqzc-6">
          <mxGeometry width="160" relative="1" as="geometry">
            <mxPoint x="630" y="1320" as="sourcePoint" />
            <mxPoint x="330" y="1320" as="targetPoint" />
            <Array as="points">
              <mxPoint x="455" y="1320" />
            </Array>
            <mxPoint as="offset" />
          </mxGeometry>
        </mxCell>
        <mxCell id="NDGKZVB12Xw6W9YrpPGg-10" value="Deserializer" style="shape=umlLifeline;perimeter=lifelinePerimeter;whiteSpace=wrap;html=1;container=1;dropTarget=0;collapsible=0;recursiveResize=0;outlineConnect=0;portConstraint=eastwest;newEdgeStyle={&quot;edgeStyle&quot;:&quot;elbowEdgeStyle&quot;,&quot;elbow&quot;:&quot;vertical&quot;,&quot;curved&quot;:0,&quot;rounded&quot;:0};" vertex="1" parent="1">
          <mxGeometry x="590" y="1120" width="100" height="1060" as="geometry" />
        </mxCell>
        <mxCell id="NDGKZVB12Xw6W9YrpPGg-16" value="" style="html=1;points=[];perimeter=orthogonalPerimeter;outlineConnect=0;targetShapes=umlLifeline;portConstraint=eastwest;newEdgeStyle={&quot;edgeStyle&quot;:&quot;elbowEdgeStyle&quot;,&quot;elbow&quot;:&quot;vertical&quot;,&quot;curved&quot;:0,&quot;rounded&quot;:0};" vertex="1" parent="NDGKZVB12Xw6W9YrpPGg-10">
          <mxGeometry x="45" y="540" width="10" height="160" as="geometry" />
        </mxCell>
        <mxCell id="NDGKZVB12Xw6W9YrpPGg-12" value="Tokenizer" style="shape=umlLifeline;perimeter=lifelinePerimeter;whiteSpace=wrap;html=1;container=1;dropTarget=0;collapsible=0;recursiveResize=0;outlineConnect=0;portConstraint=eastwest;newEdgeStyle={&quot;edgeStyle&quot;:&quot;elbowEdgeStyle&quot;,&quot;elbow&quot;:&quot;vertical&quot;,&quot;curved&quot;:0,&quot;rounded&quot;:0};" vertex="1" parent="1">
          <mxGeometry x="750" y="1120" width="100" height="1060" as="geometry" />
        </mxCell>
        <mxCell id="NDGKZVB12Xw6W9YrpPGg-23" value="" style="html=1;points=[];perimeter=orthogonalPerimeter;outlineConnect=0;targetShapes=umlLifeline;portConstraint=eastwest;newEdgeStyle={&quot;edgeStyle&quot;:&quot;elbowEdgeStyle&quot;,&quot;elbow&quot;:&quot;vertical&quot;,&quot;curved&quot;:0,&quot;rounded&quot;:0};" vertex="1" parent="NDGKZVB12Xw6W9YrpPGg-12">
          <mxGeometry x="45" y="740" width="10" height="230" as="geometry" />
        </mxCell>
        <mxCell id="NDGKZVB12Xw6W9YrpPGg-17" value="&lt;font style=&quot;font-size: 6px;&quot;&gt;deserialize(StoreFileName)&lt;/font&gt;" style="endArrow=blockThin;endSize=16;endFill=1;html=1;rounded=0;" edge="1" parent="1" target="NDGKZVB12Xw6W9YrpPGg-16">
          <mxGeometry x="-0.1429" width="160" relative="1" as="geometry">
            <mxPoint x="165" y="1679.77" as="sourcePoint" />
            <mxPoint x="630" y="1680" as="targetPoint" />
            <mxPoint as="offset" />
            <Array as="points">
              <mxPoint x="330" y="1679.77" />
            </Array>
          </mxGeometry>
        </mxCell>
        <mxCell id="NDGKZVB12Xw6W9YrpPGg-18" value="&lt;font style=&quot;font-size: 6px;&quot;&gt;deserialize(StoreFileName)&lt;/font&gt;" style="endArrow=blockThin;endSize=16;endFill=1;html=1;rounded=0;" edge="1" parent="1" source="NDGKZVB12Xw6W9YrpPGg-16" target="NDGKZVB12Xw6W9YrpPGg-19">
          <mxGeometry x="-0.1429" width="160" relative="1" as="geometry">
            <mxPoint x="650" y="1700" as="sourcePoint" />
            <mxPoint x="950" y="1700" as="targetPoint" />
            <mxPoint as="offset" />
            <Array as="points">
              <mxPoint x="815" y="1700" />
            </Array>
          </mxGeometry>
        </mxCell>
        <mxCell id="NDGKZVB12Xw6W9YrpPGg-20" value="&lt;font style=&quot;font-size: 6px;&quot;&gt;articles&lt;/font&gt;" style="endArrow=openThin;endSize=12;dashed=1;html=1;rounded=0;endFill=0;" edge="1" parent="1" source="NDGKZVB12Xw6W9YrpPGg-19" target="NDGKZVB12Xw6W9YrpPGg-16">
          <mxGeometry width="160" relative="1" as="geometry">
            <mxPoint x="950" y="1730" as="sourcePoint" />
            <mxPoint x="700" y="1730" as="targetPoint" />
            <Array as="points">
              <mxPoint x="930" y="1730" />
            </Array>
            <mxPoint as="offset" />
          </mxGeometry>
        </mxCell>
        <mxCell id="NDGKZVB12Xw6W9YrpPGg-21" value="&lt;font style=&quot;font-size: 6px;&quot;&gt;getArticles()&lt;/font&gt;" style="endArrow=blockThin;endSize=16;endFill=1;html=1;rounded=0;" edge="1" parent="1" source="KgcwhwzwJlgUO1JTBY_t-4" target="NDGKZVB12Xw6W9YrpPGg-16">
          <mxGeometry x="-0.0426" width="160" relative="1" as="geometry">
            <mxPoint x="170" y="1760" as="sourcePoint" />
            <mxPoint x="630" y="1760" as="targetPoint" />
            <mxPoint as="offset" />
            <Array as="points">
              <mxPoint x="335" y="1760" />
            </Array>
          </mxGeometry>
        </mxCell>
        <mxCell id="NDGKZVB12Xw6W9YrpPGg-22" value="&lt;font style=&quot;font-size: 6px;&quot;&gt;articles&lt;/font&gt;" style="endArrow=openThin;endSize=12;dashed=1;html=1;rounded=0;endFill=0;" edge="1" parent="1" source="NDGKZVB12Xw6W9YrpPGg-16" target="KgcwhwzwJlgUO1JTBY_t-4">
          <mxGeometry x="0.0426" width="160" relative="1" as="geometry">
            <mxPoint x="580" y="1790" as="sourcePoint" />
            <mxPoint x="270" y="1790" as="targetPoint" />
            <Array as="points">
              <mxPoint x="560" y="1800" />
              <mxPoint x="410" y="1800" />
            </Array>
            <mxPoint as="offset" />
          </mxGeometry>
        </mxCell>
        <mxCell id="NDGKZVB12Xw6W9YrpPGg-24" value="&lt;font style=&quot;font-size: 11px;&quot;&gt;ref&lt;/font&gt;" style="shape=umlFrame;whiteSpace=wrap;html=1;pointerEvents=0;width=30;height=15;fillStyle=hatch;gradientColor=#FFFFFF;swimlaneFillColor=default;" vertex="1" parent="1">
          <mxGeometry x="250" y="1470" width="130" height="30" as="geometry" />
        </mxCell>
        <mxCell id="NDGKZVB12Xw6W9YrpPGg-26" value="&lt;font style=&quot;font-size: 11px;&quot;&gt;API article request&lt;/font&gt;" style="text;strokeColor=none;fillColor=none;align=left;verticalAlign=top;spacingLeft=4;spacingRight=4;overflow=hidden;rotatable=0;points=[[0,0.5],[1,0.5]];portConstraint=eastwest;whiteSpace=wrap;html=1;" vertex="1" parent="1">
          <mxGeometry x="270" y="1472" width="120" height="26" as="geometry" />
        </mxCell>
        <mxCell id="NDGKZVB12Xw6W9YrpPGg-27" value="loop" style="shape=umlFrame;whiteSpace=wrap;html=1;pointerEvents=0;" vertex="1" parent="1">
          <mxGeometry x="30" y="1840" width="850" height="300" as="geometry" />
        </mxCell>
        <mxCell id="NDGKZVB12Xw6W9YrpPGg-28" value="&lt;font style=&quot;font-size: 9px;&quot;&gt;[articles.hasNext()==true]&lt;/font&gt;" style="text;strokeColor=none;fillColor=none;align=left;verticalAlign=top;spacingLeft=4;spacingRight=4;overflow=hidden;rotatable=0;points=[[0,0.5],[1,0.5]];portConstraint=eastwest;whiteSpace=wrap;html=1;" vertex="1" parent="1">
          <mxGeometry x="30" y="1870" width="130" height="26" as="geometry" />
        </mxCell>
        <mxCell id="NDGKZVB12Xw6W9YrpPGg-30" value="&lt;font style=&quot;font-size: 6px;&quot;&gt;tokenize(article)&lt;/font&gt;" style="endArrow=blockThin;endSize=16;endFill=1;html=1;rounded=0;" edge="1" parent="1" source="KgcwhwzwJlgUO1JTBY_t-4" target="NDGKZVB12Xw6W9YrpPGg-23">
          <mxGeometry x="-0.127" width="160" relative="1" as="geometry">
            <mxPoint x="160" y="1950" as="sourcePoint" />
            <mxPoint x="630" y="1950" as="targetPoint" />
            <mxPoint as="offset" />
            <Array as="points">
              <mxPoint x="330" y="1950" />
            </Array>
          </mxGeometry>
        </mxCell>
        <mxCell id="NDGKZVB12Xw6W9YrpPGg-31" value="&lt;font style=&quot;font-size: 11px;&quot;&gt;ref&lt;/font&gt;" style="shape=umlFrame;whiteSpace=wrap;html=1;pointerEvents=0;width=35;height=15;fillStyle=hatch;gradientColor=#FFFFFF;swimlaneFillColor=default;" vertex="1" parent="1">
          <mxGeometry x="735" y="1980" width="130" height="30" as="geometry" />
        </mxCell>
        <mxCell id="NDGKZVB12Xw6W9YrpPGg-32" value="Tokenize" style="text;strokeColor=none;fillColor=none;align=left;verticalAlign=top;spacingLeft=4;spacingRight=4;overflow=hidden;rotatable=0;points=[[0,0.5],[1,0.5]];portConstraint=eastwest;whiteSpace=wrap;html=1;" vertex="1" parent="1">
          <mxGeometry x="770" y="1982" width="70" height="26" as="geometry" />
        </mxCell>
        <mxCell id="NDGKZVB12Xw6W9YrpPGg-34" value="&lt;font style=&quot;font-size: 6px;&quot;&gt;&amp;lt;&amp;lt;wait&amp;gt;&amp;gt;&lt;/font&gt;" style="endArrow=openThin;endSize=12;dashed=1;html=1;rounded=0;endFill=0;" edge="1" parent="1" source="NDGKZVB12Xw6W9YrpPGg-23" target="KgcwhwzwJlgUO1JTBY_t-4">
          <mxGeometry x="0.127" width="160" relative="1" as="geometry">
            <mxPoint x="640" y="2040" as="sourcePoint" />
            <mxPoint x="170" y="2040" as="targetPoint" />
            <Array as="points">
              <mxPoint x="565" y="2040" />
              <mxPoint x="415" y="2040" />
            </Array>
            <mxPoint as="offset" />
          </mxGeometry>
        </mxCell>
      </root>
    </mxGraphModel>
  </diagram>
</mxfile>
